<svg xmlns="http://www.w3.org/2000/svg" viewBox="0 0 640 260" role="img" aria-labelledby="title">
<title id="title">Консоль длиной 0,5 м с заделкой слева и силой 100 Н вверх на свободном конце</title>
<defs><marker id="arrow" markerWidth="8" markerHeight="8" refX="7" refY="4" orient="auto"><path d="M0 0 L8 4 L0 8" fill="#285b89"/></marker></defs>
<style>text{font:16px 'Segoe UI',Arial,sans-serif;fill:#17211b} .bar{stroke:#165c45;stroke-width:7;fill:none} .thin{stroke:#5d685f;stroke-width:2;fill:none} .arrow{stroke:#285b89;stroke-width:2;fill:none;marker-end:url(#arrow)} .node{fill:#fff;stroke:#165c45;stroke-width:3}</style>
<rect width="640" height="260" fill="#fbfaf5"/>
<path class="arrow" d="M35 85 V30"/><path class="arrow" d="M35 85 H90"/><text x="15" y="25">Y</text><text x="95" y="90">X</text><path class="thin" d="M130 70 V150 M130 75 l-15 15 M130 95 l-15 15 M130 115 l-15 15 M130 135 l-15 15"/>
<path class="bar" d="M130 110 H470"/>
<circle class="node" cx="130" cy="110" r="6"/><circle class="node" cx="470" cy="110" r="6"/>
<path class="arrow" d="M470 100 V30"/><text x="485" y="45">P = 100 Н</text>
<text x="145" y="90">1</text><text x="445" y="100">2</text><text x="275" y="145">L = 0,5 м</text>
<text x="105" y="190">u₁x = u₁y = θ₁ = 0</text><text x="400" y="190">Свободный конец</text>
<text x="105" y="230">Локальные оси x′, y′ совпадают с X, Y</text>
</svg>
